<svg width="61" height="61" viewBox="0 0 61 61" fill="none" xmlns="http://www.w3.org/2000/svg">
<path fill-rule="evenodd" clip-rule="evenodd" d="M13.1582 59.6779C13.6601 59.822 14.1565 59.645 14.6475 59.1467C15.1385 58.6485 15.5146 57.934 15.7758 57.0031C16.037 56.0723 16.1448 54.9643 16.0992 53.6791C16.0537 52.3939 15.8464 51.0508 15.4775 49.6498L7.86149 22.4266L2.52161 1.40035C2.40645 0.950092 2.21738 0.63032 1.95438 0.441034C1.69139 0.251748 1.44207 0.264337 1.20642 0.478802C0.970774 0.693267 0.785374 1.15263 0.650221 1.85689C0.515069 2.56115 0.434168 3.4631 0.407519 4.56273C0.380871 5.66236 0.407214 6.96711 0.486549 8.477C0.565885 9.98688 0.696594 11.6172 0.878677 13.3681C1.06076 15.1189 1.3011 17.0202 1.5997 19.0719C1.89829 21.1237 2.23931 23.231 2.62275 25.394C3.00619 27.5569 3.45419 29.8331 3.96674 32.2225C4.47929 34.6119 5.03975 36.9774 5.64813 39.3189C5.75825 39.799 5.94125 40.1311 6.19714 40.3152C6.45302 40.4994 6.7036 40.4794 6.94888 40.2551L7.80023 39.4652L10.5889 54.6475C10.8949 56.1369 11.2742 57.3116 11.7267 58.1716C12.1791 59.0317 12.6563 59.5337 13.1582 59.6779ZM46.0515 60.3079L43.7146 57.776L50.9898 23.7082L50.6493 23.2958C50.3427 22.9665 50.0665 22.5113 49.8366 21.9564C49.6067 21.4015 49.4276 20.7579 49.3097 20.0627C49.1917 19.3675 49.1373 18.6344 49.1495 17.9057C49.1616 17.177 49.2402 16.467 49.3806 15.8166L52.641 0.427071L54.1779 2.07044L51.7427 13.553L53.3248 15.2237L55.7644 3.76768L57.2892 5.41971L54.833 16.8577L56.3999 18.5989L58.8637 7.12561L60.3975 8.83087L57.0873 24.1666C56.4989 26.9181 54.9795 28.0092 53.6988 26.5999L53.3433 26.2581L46.0515 60.3079ZM28.9775 3.30167C28.2136 3.30051 27.4079 3.59864 26.6179 4.26577C25.8215 4.93836 25.0802 5.95628 24.4809 7.28187C24.2535 7.78482 23.6616 8.00841 23.1584 7.78142C22.4649 7.46852 21.7683 7.40833 21.0863 7.58348C20.3941 7.76123 19.6769 8.19275 18.9909 8.91914C18.3039 9.64647 17.681 10.6363 17.1783 11.8502C16.6766 13.062 16.3132 14.4526 16.1176 15.9406C15.922 17.4278 15.8995 18.9706 16.0518 20.4747C16.2041 21.9794 16.5271 23.4039 16.995 24.6637C17.4636 25.9256 18.0611 26.978 18.7343 27.7747C19.4075 28.5715 20.1237 29.0752 20.8222 29.318C21.2243 29.4578 21.4938 29.8369 21.4938 30.2626V35.6386L21.4938 35.6454L21.4938 38.8142H25.0761V31.4777C25.0761 30.9254 25.5238 30.4777 26.0761 30.4777C26.6284 30.4777 27.0761 30.9254 27.0761 31.4777V38.8142H37.0383V30.2612C37.0383 29.8337 37.3101 29.4535 37.7145 29.315C38.4296 29.0703 39.1635 28.5525 39.8512 27.7271C40.5386 26.9019 41.1448 25.8099 41.6134 24.5025C42.0812 23.1972 42.3947 21.7246 42.528 20.1764C42.6612 18.6287 42.6103 17.0501 42.3795 15.5415C42.1485 14.032 41.7443 12.6377 41.2013 11.4431C40.6571 10.2461 39.9957 9.29808 39.2806 8.63097C38.5682 7.96634 37.8352 7.60926 37.1343 7.50856C36.4407 7.40891 35.7223 7.55168 35.0055 7.97531C34.7579 8.12163 34.4593 8.15428 34.186 8.06491C33.9126 7.97555 33.691 7.77282 33.5777 7.5085C32.9797 6.11387 32.2254 5.03672 31.4076 4.32346C30.5963 3.61585 29.7659 3.30048 28.9805 3.30167H28.9775ZM21.4938 43.9921L21.4938 43.9853L21.4938 40.8142H25.9938C26.021 40.8164 26.0484 40.8175 26.0761 40.8175C26.1038 40.8175 26.1313 40.8164 26.1584 40.8142H37.0383V52.3187C37.0383 52.9203 36.8984 53.4469 36.7039 53.7857C36.6089 53.9513 36.5213 54.0369 36.4686 54.075C36.4503 54.0882 36.4381 54.0945 36.4316 54.0974H22.1006C22.0941 54.0945 22.0818 54.0882 22.0636 54.075C22.0108 54.0369 21.9233 53.9513 21.8282 53.7857C21.6338 53.4469 21.4938 52.9203 21.4938 52.3187V43.9921ZM39.0383 52.3187V43.9927L39.0384 43.9853V35.6454L39.0383 35.6381V30.9249C39.9066 30.4949 40.6971 29.8363 41.3878 29.0072C42.2541 27.9674 42.9653 26.6582 43.4961 25.1773C44.0276 23.6942 44.3741 22.0506 44.5206 20.3479C44.6672 18.6446 44.6117 16.9068 44.3565 15.239C44.1014 13.5722 43.6504 11.9979 43.022 10.6155C42.3946 9.23551 41.5932 8.05319 40.6449 7.16853C39.694 6.28139 38.5984 5.69837 37.4188 5.52889C36.5873 5.40943 35.7622 5.5026 34.9748 5.78654C34.3567 4.59608 33.5991 3.58104 32.7223 2.81624C31.618 1.85312 30.3356 1.30003 28.979 1.30167C27.6608 1.30007 26.4112 1.82259 25.3275 2.73776C24.4491 3.47962 23.6873 4.47087 23.0623 5.63785C22.2502 5.43505 21.4141 5.43439 20.5888 5.64634C19.4583 5.93668 18.4252 6.60525 17.5368 7.5459C16.6493 8.4856 15.9057 9.69592 15.3305 11.0851C14.7544 12.4764 14.3504 14.039 14.1347 15.6798C13.9188 17.3214 13.8942 19.0192 14.0619 20.6761C14.2296 22.3324 14.5872 23.9251 15.1201 25.36C15.6523 26.793 16.3557 28.0585 17.2065 29.0655C17.8818 29.8647 18.651 30.5016 19.4938 30.9231V52.3187C19.4938 53.191 19.6899 54.0779 20.0937 54.7813C20.4877 55.4678 21.1668 56.0974 22.0888 56.0974H36.4434C37.3654 56.0974 38.0445 55.4678 38.4385 54.7813C38.8422 54.0779 39.0383 53.191 39.0383 52.3187Z" fill="black"/>
</svg>
